<?xml version="1.0" encoding="utf-8" standalone="no"?>
<!DOCTYPE svg PUBLIC "-//W3C//DTD SVG 1.1//EN"
  "http://www.w3.org/Graphics/SVG/1.1/DTD/svg11.dtd">
<!-- Created with matplotlib (http://matplotlib.org/) -->
<svg height="360pt" version="1.1" viewBox="0 0 720 360" width="720pt" xmlns="http://www.w3.org/2000/svg" xmlns:xlink="http://www.w3.org/1999/xlink">
 <defs>
  <style type="text/css">
*{stroke-linecap:butt;stroke-linejoin:round;}
  </style>
 </defs>
 <g id="figure_1">
  <g id="patch_1">
   <path d="M 0 360 
L 720 360 
L 720 0 
L 0 0 
z
" style="fill:#ffffff;"/>
  </g>
  <g id="axes_1">
   <g id="patch_2">
    <path d="M 90 315 
L 648 315 
L 648 43.2 
L 90 43.2 
z
" style="fill:#ffffff;"/>
   </g>
   <g id="PathCollection_1">
    <defs>
     <path d="M 0 3 
C 0.795609 3 1.55874 2.683901 2.12132 2.12132 
C 2.683901 1.55874 3 0.795609 3 0 
C 3 -0.795609 2.683901 -1.55874 2.12132 -2.12132 
C 1.55874 -2.683901 0.795609 -3 0 -3 
C -0.795609 -3 -1.55874 -2.683901 -2.12132 -2.12132 
C -2.683901 -1.55874 -3 -0.795609 -3 0 
C -3 0.795609 -2.683901 1.55874 -2.12132 2.12132 
C -1.55874 2.683901 -0.795609 3 0 3 
z
" id="md2f2b0b855" style="stroke:#1f77b4;"/>
    </defs>
    <g clip-path="url(#pc35ace79c1)">
     <use style="fill:#1f77b4;stroke:#1f77b4;" x="116.040183" xlink:href="#md2f2b0b855" y="56.443412"/>
     <use style="fill:#1f77b4;stroke:#1f77b4;" x="128.623951" xlink:href="#md2f2b0b855" y="57.816195"/>
     <use style="fill:#1f77b4;stroke:#1f77b4;" x="141.198025" xlink:href="#md2f2b0b855" y="59.225368"/>
     <use style="fill:#1f77b4;stroke:#1f77b4;" x="153.761446" xlink:href="#md2f2b0b855" y="60.673476"/>
     <use style="fill:#1f77b4;stroke:#1f77b4;" x="166.313108" xlink:href="#md2f2b0b855" y="62.163363"/>
     <use style="fill:#1f77b4;stroke:#1f77b4;" x="178.851735" xlink:href="#md2f2b0b855" y="63.698222"/>
     <use style="fill:#1f77b4;stroke:#1f77b4;" x="191.375845" xlink:href="#md2f2b0b855" y="65.281654"/>
     <use style="fill:#1f77b4;stroke:#1f77b4;" x="203.883699" xlink:href="#md2f2b0b855" y="66.917746"/>
     <use style="fill:#1f77b4;stroke:#1f77b4;" x="216.373243" xlink:href="#md2f2b0b855" y="68.611164"/>
     <use style="fill:#1f77b4;stroke:#1f77b4;" x="228.842033" xlink:href="#md2f2b0b855" y="70.367271"/>
     <use style="fill:#1f77b4;stroke:#1f77b4;" x="241.287129" xlink:href="#md2f2b0b855" y="72.192278"/>
     <use style="fill:#1f77b4;stroke:#1f77b4;" x="253.704957" xlink:href="#md2f2b0b855" y="74.093442"/>
     <use style="fill:#1f77b4;stroke:#1f77b4;" x="266.091117" xlink:href="#md2f2b0b855" y="76.079318"/>
     <use style="fill:#1f77b4;stroke:#1f77b4;" x="278.440124" xlink:href="#md2f2b0b855" y="78.160098"/>
     <use style="fill:#1f77b4;stroke:#1f77b4;" x="290.745028" xlink:href="#md2f2b0b855" y="80.348075"/>
     <use style="fill:#1f77b4;stroke:#1f77b4;" x="302.996867" xlink:href="#md2f2b0b855" y="82.658274"/>
     <use style="fill:#1f77b4;stroke:#1f77b4;" x="315.183846" xlink:href="#md2f2b0b855" y="85.109352"/>
     <use style="fill:#1f77b4;stroke:#1f77b4;" x="327.29006" xlink:href="#md2f2b0b855" y="87.724891"/>
     <use style="fill:#1f77b4;stroke:#1f77b4;" x="339.293453" xlink:href="#md2f2b0b855" y="90.535341"/>
     <use style="fill:#1f77b4;stroke:#1f77b4;" x="351.162384" xlink:href="#md2f2b0b855" y="93.580991"/>
     <use style="fill:#1f77b4;stroke:#1f77b4;" x="362.849556" xlink:href="#md2f2b0b855" y="96.916733"/>
     <use style="fill:#1f77b4;stroke:#1f77b4;" x="374.280632" xlink:href="#md2f2b0b855" y="100.619948"/>
     <use style="fill:#1f77b4;stroke:#1f77b4;" x="385.331272" xlink:href="#md2f2b0b855" y="104.804112"/>
     <use style="fill:#1f77b4;stroke:#1f77b4;" x="395.776913" xlink:href="#md2f2b0b855" y="109.642673"/>
     <use style="fill:#1f77b4;stroke:#1f77b4;" x="405.174055" xlink:href="#md2f2b0b855" y="115.408265"/>
     <use style="fill:#1f77b4;stroke:#1f77b4;" x="412.576829" xlink:href="#md2f2b0b855" y="122.505124"/>
     <use style="fill:#1f77b4;stroke:#1f77b4;" x="416.10098" xlink:href="#md2f2b0b855" y="131.258949"/>
     <use style="fill:#1f77b4;stroke:#1f77b4;" x="413.873497" xlink:href="#md2f2b0b855" y="140.961097"/>
     <use style="fill:#1f77b4;stroke:#1f77b4;" x="406.908827" xlink:href="#md2f2b0b855" y="150.217819"/>
     <use style="fill:#1f77b4;stroke:#1f77b4;" x="397.388857" xlink:href="#md2f2b0b855" y="158.687145"/>
     <use style="fill:#1f77b4;stroke:#1f77b4;" x="386.610434" xlink:href="#md2f2b0b855" y="166.577133"/>
     <use style="fill:#1f77b4;stroke:#1f77b4;" x="375.234521" xlink:href="#md2f2b0b855" y="174.132837"/>
     <use style="fill:#1f77b4;stroke:#1f77b4;" x="363.655298" xlink:href="#md2f2b0b855" y="181.563174"/>
     <use style="fill:#1f77b4;stroke:#1f77b4;" x="352.18251" xlink:href="#md2f2b0b855" y="189.061443"/>
     <use style="fill:#1f77b4;stroke:#1f77b4;" x="341.156668" xlink:href="#md2f2b0b855" y="196.839783"/>
     <use style="fill:#1f77b4;stroke:#1f77b4;" x="331.093179" xlink:href="#md2f2b0b855" y="205.176809"/>
     <use style="fill:#1f77b4;stroke:#1f77b4;" x="323.004716" xlink:href="#md2f2b0b855" y="214.490214"/>
     <use style="fill:#1f77b4;stroke:#1f77b4;" x="319.280931" xlink:href="#md2f2b0b855" y="225.356068"/>
     <use style="fill:#1f77b4;stroke:#1f77b4;" x="324.563047" xlink:href="#md2f2b0b855" y="237.485947"/>
     <use style="fill:#1f77b4;stroke:#1f77b4;" x="339.066307" xlink:href="#md2f2b0b855" y="247.971287"/>
     <use style="fill:#1f77b4;stroke:#1f77b4;" x="357.746069" xlink:href="#md2f2b0b855" y="256.090689"/>
     <use style="fill:#1f77b4;stroke:#1f77b4;" x="378.10176" xlink:href="#md2f2b0b855" y="262.630985"/>
     <use style="fill:#1f77b4;stroke:#1f77b4;" x="399.263245" xlink:href="#md2f2b0b855" y="268.144164"/>
     <use style="fill:#1f77b4;stroke:#1f77b4;" x="420.877423" xlink:href="#md2f2b0b855" y="272.945711"/>
     <use style="fill:#1f77b4;stroke:#1f77b4;" x="442.774955" xlink:href="#md2f2b0b855" y="277.224868"/>
     <use style="fill:#1f77b4;stroke:#1f77b4;" x="464.863867" xlink:href="#md2f2b0b855" y="281.102937"/>
     <use style="fill:#1f77b4;stroke:#1f77b4;" x="487.089434" xlink:href="#md2f2b0b855" y="284.662224"/>
     <use style="fill:#1f77b4;stroke:#1f77b4;" x="509.416786" xlink:href="#md2f2b0b855" y="287.961205"/>
     <use style="fill:#1f77b4;stroke:#1f77b4;" x="531.822495" xlink:href="#md2f2b0b855" y="291.042997"/>
     <use style="fill:#1f77b4;stroke:#1f77b4;" x="554.290139" xlink:href="#md2f2b0b855" y="293.940369"/>
     <use style="fill:#1f77b4;stroke:#1f77b4;" x="576.807814" xlink:href="#md2f2b0b855" y="296.678855"/>
     <use style="fill:#1f77b4;stroke:#1f77b4;" x="599.366634" xlink:href="#md2f2b0b855" y="299.278775"/>
     <use style="fill:#1f77b4;stroke:#1f77b4;" x="621.959817" xlink:href="#md2f2b0b855" y="301.756588"/>
    </g>
   </g>
   <g id="matplotlib.axis_1">
    <g id="xtick_1">
     <g id="line2d_1">
      <defs>
       <path d="M 0 0 
L 0 3.5 
" id="m7866ed3e8b" style="stroke:#000000;stroke-width:0.8;"/>
      </defs>
      <g>
       <use style="stroke:#000000;stroke-width:0.8;" x="116.040183" xlink:href="#m7866ed3e8b" y="315"/>
      </g>
     </g>
     <g id="text_1">
      <!-- −2.0 -->
      <defs>
       <path d="M 10.59375 35.5 
L 73.1875 35.5 
L 73.1875 27.203125 
L 10.59375 27.203125 
z
" id="DejaVuSans-2212"/>
       <path d="M 19.1875 8.296875 
L 53.609375 8.296875 
L 53.609375 0 
L 7.328125 0 
L 7.328125 8.296875 
Q 12.9375 14.109375 22.625 23.890625 
Q 32.328125 33.6875 34.8125 36.53125 
Q 39.546875 41.84375 41.421875 45.53125 
Q 43.3125 49.21875 43.3125 52.78125 
Q 43.3125 58.59375 39.234375 62.25 
Q 35.15625 65.921875 28.609375 65.921875 
Q 23.96875 65.921875 18.8125 64.3125 
Q 13.671875 62.703125 7.8125 59.421875 
L 7.8125 69.390625 
Q 13.765625 71.78125 18.9375 73 
Q 24.125 74.21875 28.421875 74.21875 
Q 39.75 74.21875 46.484375 68.546875 
Q 53.21875 62.890625 53.21875 53.421875 
Q 53.21875 48.921875 51.53125 44.890625 
Q 49.859375 40.875 45.40625 35.40625 
Q 44.1875 33.984375 37.640625 27.21875 
Q 31.109375 20.453125 19.1875 8.296875 
z
" id="DejaVuSans-32"/>
       <path d="M 10.6875 12.40625 
L 21 12.40625 
L 21 0 
L 10.6875 0 
z
" id="DejaVuSans-2e"/>
       <path d="M 31.78125 66.40625 
Q 24.171875 66.40625 20.328125 58.90625 
Q 16.5 51.421875 16.5 36.375 
Q 16.5 21.390625 20.328125 13.890625 
Q 24.171875 6.390625 31.78125 6.390625 
Q 39.453125 6.390625 43.28125 13.890625 
Q 47.125 21.390625 47.125 36.375 
Q 47.125 51.421875 43.28125 58.90625 
Q 39.453125 66.40625 31.78125 66.40625 
z
M 31.78125 74.21875 
Q 44.046875 74.21875 50.515625 64.515625 
Q 56.984375 54.828125 56.984375 36.375 
Q 56.984375 17.96875 50.515625 8.265625 
Q 44.046875 -1.421875 31.78125 -1.421875 
Q 19.53125 -1.421875 13.0625 8.265625 
Q 6.59375 17.96875 6.59375 36.375 
Q 6.59375 54.828125 13.0625 64.515625 
Q 19.53125 74.21875 31.78125 74.21875 
z
" id="DejaVuSans-30"/>
      </defs>
      <g transform="translate(103.898777 329.598437)scale(0.1 -0.1)">
       <use xlink:href="#DejaVuSans-2212"/>
       <use x="83.789062" xlink:href="#DejaVuSans-32"/>
       <use x="147.412109" xlink:href="#DejaVuSans-2e"/>
       <use x="179.199219" xlink:href="#DejaVuSans-30"/>
      </g>
     </g>
    </g>
    <g id="xtick_2">
     <g id="line2d_2">
      <g>
       <use style="stroke:#000000;stroke-width:0.8;" x="178.959021" xlink:href="#m7866ed3e8b" y="315"/>
      </g>
     </g>
     <g id="text_2">
      <!-- −1.5 -->
      <defs>
       <path d="M 12.40625 8.296875 
L 28.515625 8.296875 
L 28.515625 63.921875 
L 10.984375 60.40625 
L 10.984375 69.390625 
L 28.421875 72.90625 
L 38.28125 72.90625 
L 38.28125 8.296875 
L 54.390625 8.296875 
L 54.390625 0 
L 12.40625 0 
z
" id="DejaVuSans-31"/>
       <path d="M 10.796875 72.90625 
L 49.515625 72.90625 
L 49.515625 64.59375 
L 19.828125 64.59375 
L 19.828125 46.734375 
Q 21.96875 47.46875 24.109375 47.828125 
Q 26.265625 48.1875 28.421875 48.1875 
Q 40.625 48.1875 47.75 41.5 
Q 54.890625 34.8125 54.890625 23.390625 
Q 54.890625 11.625 47.5625 5.09375 
Q 40.234375 -1.421875 26.90625 -1.421875 
Q 22.3125 -1.421875 17.546875 -0.640625 
Q 12.796875 0.140625 7.71875 1.703125 
L 7.71875 11.625 
Q 12.109375 9.234375 16.796875 8.0625 
Q 21.484375 6.890625 26.703125 6.890625 
Q 35.15625 6.890625 40.078125 11.328125 
Q 45.015625 15.765625 45.015625 23.390625 
Q 45.015625 31 40.078125 35.4375 
Q 35.15625 39.890625 26.703125 39.890625 
Q 22.75 39.890625 18.8125 39.015625 
Q 14.890625 38.140625 10.796875 36.28125 
z
" id="DejaVuSans-35"/>
      </defs>
      <g transform="translate(166.817614 329.598437)scale(0.1 -0.1)">
       <use xlink:href="#DejaVuSans-2212"/>
       <use x="83.789062" xlink:href="#DejaVuSans-31"/>
       <use x="147.412109" xlink:href="#DejaVuSans-2e"/>
       <use x="179.199219" xlink:href="#DejaVuSans-35"/>
      </g>
     </g>
    </g>
    <g id="xtick_3">
     <g id="line2d_3">
      <g>
       <use style="stroke:#000000;stroke-width:0.8;" x="241.877858" xlink:href="#m7866ed3e8b" y="315"/>
      </g>
     </g>
     <g id="text_3">
      <!-- −1.0 -->
      <g transform="translate(229.736452 329.598437)scale(0.1 -0.1)">
       <use xlink:href="#DejaVuSans-2212"/>
       <use x="83.789062" xlink:href="#DejaVuSans-31"/>
       <use x="147.412109" xlink:href="#DejaVuSans-2e"/>
       <use x="179.199219" xlink:href="#DejaVuSans-30"/>
      </g>
     </g>
    </g>
    <g id="xtick_4">
     <g id="line2d_4">
      <g>
       <use style="stroke:#000000;stroke-width:0.8;" x="304.796696" xlink:href="#m7866ed3e8b" y="315"/>
      </g>
     </g>
     <g id="text_4">
      <!-- −0.5 -->
      <g transform="translate(292.65529 329.598437)scale(0.1 -0.1)">
       <use xlink:href="#DejaVuSans-2212"/>
       <use x="83.789062" xlink:href="#DejaVuSans-30"/>
       <use x="147.412109" xlink:href="#DejaVuSans-2e"/>
       <use x="179.199219" xlink:href="#DejaVuSans-35"/>
      </g>
     </g>
    </g>
    <g id="xtick_5">
     <g id="line2d_5">
      <g>
       <use style="stroke:#000000;stroke-width:0.8;" x="367.715534" xlink:href="#m7866ed3e8b" y="315"/>
      </g>
     </g>
     <g id="text_5">
      <!-- 0.0 -->
      <g transform="translate(359.763971 329.598437)scale(0.1 -0.1)">
       <use xlink:href="#DejaVuSans-30"/>
       <use x="63.623047" xlink:href="#DejaVuSans-2e"/>
       <use x="95.410156" xlink:href="#DejaVuSans-30"/>
      </g>
     </g>
    </g>
    <g id="xtick_6">
     <g id="line2d_6">
      <g>
       <use style="stroke:#000000;stroke-width:0.8;" x="430.634371" xlink:href="#m7866ed3e8b" y="315"/>
      </g>
     </g>
     <g id="text_6">
      <!-- 0.5 -->
      <g transform="translate(422.682809 329.598437)scale(0.1 -0.1)">
       <use xlink:href="#DejaVuSans-30"/>
       <use x="63.623047" xlink:href="#DejaVuSans-2e"/>
       <use x="95.410156" xlink:href="#DejaVuSans-35"/>
      </g>
     </g>
    </g>
    <g id="xtick_7">
     <g id="line2d_7">
      <g>
       <use style="stroke:#000000;stroke-width:0.8;" x="493.553209" xlink:href="#m7866ed3e8b" y="315"/>
      </g>
     </g>
     <g id="text_7">
      <!-- 1.0 -->
      <g transform="translate(485.601646 329.598437)scale(0.1 -0.1)">
       <use xlink:href="#DejaVuSans-31"/>
       <use x="63.623047" xlink:href="#DejaVuSans-2e"/>
       <use x="95.410156" xlink:href="#DejaVuSans-30"/>
      </g>
     </g>
    </g>
    <g id="xtick_8">
     <g id="line2d_8">
      <g>
       <use style="stroke:#000000;stroke-width:0.8;" x="556.472047" xlink:href="#m7866ed3e8b" y="315"/>
      </g>
     </g>
     <g id="text_8">
      <!-- 1.5 -->
      <g transform="translate(548.520484 329.598437)scale(0.1 -0.1)">
       <use xlink:href="#DejaVuSans-31"/>
       <use x="63.623047" xlink:href="#DejaVuSans-2e"/>
       <use x="95.410156" xlink:href="#DejaVuSans-35"/>
      </g>
     </g>
    </g>
    <g id="xtick_9">
     <g id="line2d_9">
      <g>
       <use style="stroke:#000000;stroke-width:0.8;" x="619.390884" xlink:href="#m7866ed3e8b" y="315"/>
      </g>
     </g>
     <g id="text_9">
      <!-- 2.0 -->
      <g transform="translate(611.439322 329.598437)scale(0.1 -0.1)">
       <use xlink:href="#DejaVuSans-32"/>
       <use x="63.623047" xlink:href="#DejaVuSans-2e"/>
       <use x="95.410156" xlink:href="#DejaVuSans-30"/>
      </g>
     </g>
    </g>
    <g id="text_10">
     <!-- k -->
     <defs>
      <path d="M 9.078125 75.984375 
L 18.109375 75.984375 
L 18.109375 31.109375 
L 44.921875 54.6875 
L 56.390625 54.6875 
L 27.390625 29.109375 
L 57.625 0 
L 45.90625 0 
L 18.109375 26.703125 
L 18.109375 0 
L 9.078125 0 
z
" id="DejaVuSans-6b"/>
     </defs>
     <g transform="translate(366.104688 343.276563)scale(0.1 -0.1)">
      <use xlink:href="#DejaVuSans-6b"/>
     </g>
    </g>
   </g>
   <g id="matplotlib.axis_2">
    <g id="ytick_1">
     <g id="line2d_10">
      <defs>
       <path d="M 0 0 
L -3.5 0 
" id="mb78e20596c" style="stroke:#000000;stroke-width:0.8;"/>
      </defs>
      <g>
       <use style="stroke:#000000;stroke-width:0.8;" x="90" xlink:href="#mb78e20596c" y="299.758985"/>
      </g>
     </g>
     <g id="text_11">
      <!-- −1.5 -->
      <g transform="translate(58.717187 303.558204)scale(0.1 -0.1)">
       <use xlink:href="#DejaVuSans-2212"/>
       <use x="83.789062" xlink:href="#DejaVuSans-31"/>
       <use x="147.412109" xlink:href="#DejaVuSans-2e"/>
       <use x="179.199219" xlink:href="#DejaVuSans-35"/>
      </g>
     </g>
    </g>
    <g id="ytick_2">
     <g id="line2d_11">
      <g>
       <use style="stroke:#000000;stroke-width:0.8;" x="90" xlink:href="#mb78e20596c" y="259.493345"/>
      </g>
     </g>
     <g id="text_12">
      <!-- −1.0 -->
      <g transform="translate(58.717187 263.292564)scale(0.1 -0.1)">
       <use xlink:href="#DejaVuSans-2212"/>
       <use x="83.789062" xlink:href="#DejaVuSans-31"/>
       <use x="147.412109" xlink:href="#DejaVuSans-2e"/>
       <use x="179.199219" xlink:href="#DejaVuSans-30"/>
      </g>
     </g>
    </g>
    <g id="ytick_3">
     <g id="line2d_12">
      <g>
       <use style="stroke:#000000;stroke-width:0.8;" x="90" xlink:href="#mb78e20596c" y="219.227706"/>
      </g>
     </g>
     <g id="text_13">
      <!-- −0.5 -->
      <g transform="translate(58.717187 223.026924)scale(0.1 -0.1)">
       <use xlink:href="#DejaVuSans-2212"/>
       <use x="83.789062" xlink:href="#DejaVuSans-30"/>
       <use x="147.412109" xlink:href="#DejaVuSans-2e"/>
       <use x="179.199219" xlink:href="#DejaVuSans-35"/>
      </g>
     </g>
    </g>
    <g id="ytick_4">
     <g id="line2d_13">
      <g>
       <use style="stroke:#000000;stroke-width:0.8;" x="90" xlink:href="#mb78e20596c" y="178.962066"/>
      </g>
     </g>
     <g id="text_14">
      <!-- 0.0 -->
      <g transform="translate(67.096875 182.761285)scale(0.1 -0.1)">
       <use xlink:href="#DejaVuSans-30"/>
       <use x="63.623047" xlink:href="#DejaVuSans-2e"/>
       <use x="95.410156" xlink:href="#DejaVuSans-30"/>
      </g>
     </g>
    </g>
    <g id="ytick_5">
     <g id="line2d_14">
      <g>
       <use style="stroke:#000000;stroke-width:0.8;" x="90" xlink:href="#mb78e20596c" y="138.696426"/>
      </g>
     </g>
     <g id="text_15">
      <!-- 0.5 -->
      <g transform="translate(67.096875 142.495645)scale(0.1 -0.1)">
       <use xlink:href="#DejaVuSans-30"/>
       <use x="63.623047" xlink:href="#DejaVuSans-2e"/>
       <use x="95.410156" xlink:href="#DejaVuSans-35"/>
      </g>
     </g>
    </g>
    <g id="ytick_6">
     <g id="line2d_15">
      <g>
       <use style="stroke:#000000;stroke-width:0.8;" x="90" xlink:href="#mb78e20596c" y="98.430787"/>
      </g>
     </g>
     <g id="text_16">
      <!-- 1.0 -->
      <g transform="translate(67.096875 102.230005)scale(0.1 -0.1)">
       <use xlink:href="#DejaVuSans-31"/>
       <use x="63.623047" xlink:href="#DejaVuSans-2e"/>
       <use x="95.410156" xlink:href="#DejaVuSans-30"/>
      </g>
     </g>
    </g>
    <g id="ytick_7">
     <g id="line2d_16">
      <g>
       <use style="stroke:#000000;stroke-width:0.8;" x="90" xlink:href="#mb78e20596c" y="58.165147"/>
      </g>
     </g>
     <g id="text_17">
      <!-- 1.5 -->
      <g transform="translate(67.096875 61.964366)scale(0.1 -0.1)">
       <use xlink:href="#DejaVuSans-31"/>
       <use x="63.623047" xlink:href="#DejaVuSans-2e"/>
       <use x="95.410156" xlink:href="#DejaVuSans-35"/>
      </g>
     </g>
    </g>
    <g id="text_18">
     <!-- ||x|| -->
     <defs>
      <path d="M 21 76.421875 
L 21 -23.578125 
L 12.703125 -23.578125 
L 12.703125 76.421875 
z
" id="DejaVuSans-7c"/>
      <path d="M 54.890625 54.6875 
L 35.109375 28.078125 
L 55.90625 0 
L 45.3125 0 
L 29.390625 21.484375 
L 13.484375 0 
L 2.875 0 
L 24.125 28.609375 
L 4.6875 54.6875 
L 15.28125 54.6875 
L 29.78125 35.203125 
L 44.28125 54.6875 
z
" id="DejaVuSans-78"/>
     </defs>
     <g transform="translate(52.359375 188.796875)rotate(-90)scale(0.1 -0.1)">
      <use xlink:href="#DejaVuSans-7c"/>
      <use x="33.691406" xlink:href="#DejaVuSans-7c"/>
      <use x="67.382812" xlink:href="#DejaVuSans-78"/>
      <use x="126.5625" xlink:href="#DejaVuSans-7c"/>
      <use x="160.253906" xlink:href="#DejaVuSans-7c"/>
     </g>
    </g>
   </g>
   <g id="patch_3">
    <path d="M 90 315 
L 90 43.2 
" style="fill:none;stroke:#000000;stroke-linecap:square;stroke-linejoin:miter;stroke-width:0.8;"/>
   </g>
   <g id="patch_4">
    <path d="M 648 315 
L 648 43.2 
" style="fill:none;stroke:#000000;stroke-linecap:square;stroke-linejoin:miter;stroke-width:0.8;"/>
   </g>
   <g id="patch_5">
    <path d="M 90 315 
L 648 315 
" style="fill:none;stroke:#000000;stroke-linecap:square;stroke-linejoin:miter;stroke-width:0.8;"/>
   </g>
   <g id="patch_6">
    <path d="M 90 43.2 
L 648 43.2 
" style="fill:none;stroke:#000000;stroke-linecap:square;stroke-linejoin:miter;stroke-width:0.8;"/>
   </g>
  </g>
 </g>
 <defs>
  <clipPath id="pc35ace79c1">
   <rect height="271.8" width="558" x="90" y="43.2"/>
  </clipPath>
 </defs>
</svg>
